<svg width="80" height="80" viewBox="0 0 80 80" fill="none" xmlns="http://www.w3.org/2000/svg">
<path d="M0.771655 80.0001C0.266685 79.5989 -0.195226 79.1741 0.0846607 78.4363C0.356719 77.714 0.965423 77.6475 1.62502 77.6494C3.96393 77.6592 6.3048 77.6534 8.75332 77.6534C8.75332 77.303 8.75332 77.0016 8.75332 76.7002C8.75332 68.4445 8.75332 60.1908 8.75332 51.9351C8.75332 50.4123 9.05865 50.1051 10.5755 50.1031C14.3002 50.1011 18.0229 50.1011 21.7475 50.1031C23.3564 50.1031 23.6186 50.3615 23.6186 51.9429C23.6186 60.1712 23.6186 68.4014 23.6186 76.6297C23.6186 76.937 23.6186 77.2443 23.6186 77.6005C26.6132 77.6005 29.5393 77.6005 32.5476 77.6005C32.5476 77.2384 32.5476 76.9076 32.5476 76.5749C32.5476 66.4187 32.5476 56.2626 32.5476 46.1064C32.5476 45.8989 32.5457 45.6895 32.5476 45.482C32.5652 44.1902 32.9214 43.8399 34.2504 43.8379C37.4016 43.834 40.5528 43.836 43.7039 43.836C44.4594 43.836 45.2149 43.8242 45.9685 43.8399C47.0273 43.8634 47.4031 44.247 47.4403 45.3196C47.4482 45.5544 47.4423 45.7874 47.4423 46.0222C47.4423 56.2038 47.4423 66.3855 47.4423 76.569C47.4423 76.9018 47.4423 77.2325 47.4423 77.6064C50.429 77.6064 53.3375 77.6064 56.3713 77.6064C56.3713 77.2854 56.3713 76.9605 56.3713 76.6336C56.3713 61.739 56.3713 46.8423 56.3713 31.9476C56.3713 30.3153 56.6472 30.0354 58.2698 30.0354C61.9944 30.0334 65.7171 30.0334 69.4418 30.0354C70.8901 30.0374 71.2366 30.3857 71.2366 31.838C71.2366 46.7327 71.2366 61.6293 71.2366 76.524C71.2366 76.8607 71.2366 77.1973 71.2366 77.6494C71.5497 77.6494 71.8237 77.6494 72.0978 77.6494C74.1803 77.6494 76.2648 77.671 78.3473 77.6377C79.0617 77.626 79.6156 77.8197 79.9972 78.4323C79.9972 78.953 79.9972 79.4736 79.9972 79.9942C53.5939 80.0001 27.1828 80.0001 0.771655 80.0001ZM68.8761 32.4467C65.4646 32.4467 62.1236 32.4467 58.7806 32.4467C58.7806 47.5371 58.7806 62.5708 58.7806 77.5888C62.1823 77.5888 65.5234 77.5888 68.8761 77.5888C68.8761 62.5277 68.8761 47.5313 68.8761 32.4467ZM45.0466 77.6162C45.0466 67.1312 45.0466 56.7029 45.0466 46.2434C41.6606 46.2434 38.3195 46.2434 34.9472 46.2434C34.9472 56.7284 34.9472 67.1547 34.9472 77.6162C38.3176 77.6162 41.641 77.6162 45.0466 77.6162ZM21.2269 77.6201C21.2269 69.2137 21.2269 60.8738 21.2269 52.5125C17.8408 52.5125 14.5018 52.5125 11.1451 52.5125C11.1451 60.9091 11.1451 69.247 11.1451 77.6201C14.5135 77.6201 17.835 77.6201 21.2269 77.6201Z" fill="#6160B5"/>
<path d="M64.819 8.52706C64.2201 8.52706 63.6622 8.60731 63.1338 8.51336C61.3077 8.18846 60.0981 6.64223 60.1451 4.78088C60.1901 3.00761 61.5425 1.51032 63.4156 1.26174C66.7175 0.823321 70.0213 0.39664 73.3311 0.0267191C75.6641 -0.233595 77.4746 1.43594 77.4941 3.82379C77.5215 7.05325 77.5137 10.2827 77.4961 13.5102C77.4863 15.5419 76.1319 17.1292 74.296 17.3269C72.3172 17.5402 70.724 16.3913 70.2132 14.3832C70.1818 14.2599 70.1564 14.1365 70.082 13.8077C69.8256 14.1346 69.6651 14.3675 69.4772 14.5769C65.7976 18.7126 61.7578 22.4647 57.4088 25.8859C57.2053 26.0464 57.0017 26.2226 56.7668 26.3244C56.2345 26.5534 55.7275 26.4751 55.3694 25.9955C55.021 25.5278 55.0268 25.0189 55.3987 24.557C55.5592 24.3573 55.7706 24.1929 55.9742 24.0324C61.0336 20.0279 65.6625 15.581 69.7923 10.6174C69.992 10.3767 70.1623 10.0557 70.4226 9.93629C70.8375 9.74643 71.3777 9.51156 71.7496 9.63878C72.0804 9.7523 72.4111 10.3101 72.4601 10.7055C72.5677 11.5784 72.4914 12.4729 72.4992 13.3576C72.509 14.4145 73.0081 15.0173 73.8497 14.9997C74.6522 14.984 75.1513 14.3851 75.1533 13.3791C75.1611 10.2534 75.163 7.12959 75.1533 4.00385C75.1493 2.8158 74.5172 2.2345 73.3956 2.37346C70.219 2.76883 67.0444 3.17007 63.8717 3.59087C63.5526 3.63393 63.1103 3.74158 62.9772 3.96862C62.7404 4.37573 62.5349 4.92181 62.6073 5.36414C62.7071 5.98264 63.2786 6.28797 63.9147 6.22925C65.0029 6.12943 66.0853 5.98459 67.1677 5.83584C67.839 5.74385 68.4869 5.68318 68.8822 6.3917C69.2639 7.07478 68.8783 7.56214 68.4653 8.06711C59.0157 19.6227 47.3407 28.1955 33.636 34.034C27.0107 36.8563 20.1486 38.9251 13.0457 40.1386C10.5111 40.5712 7.94124 40.8041 5.38702 41.127C5.20696 41.1505 5.02493 41.1662 4.84486 41.1995C4.03652 41.3482 3.53546 41.9354 3.61375 42.6361C3.69596 43.3701 4.27335 43.877 5.10322 43.8065C7.02133 43.6441 8.94726 43.509 10.8478 43.2193C23.063 41.3639 34.5481 37.3867 45.266 31.2331C46.8671 30.3152 48.4133 29.2994 49.983 28.3266C50.2042 28.1896 50.4156 28.0369 50.6387 27.9039C51.3727 27.4635 52.0538 27.5476 52.4394 28.1192C52.8328 28.7005 52.6605 29.3581 51.9442 29.8454C51.128 30.4013 50.2962 30.9396 49.4565 31.4621C39.5626 37.6334 28.8917 41.8845 17.5102 44.378C13.49 45.2588 9.43853 45.9184 5.32243 46.1572C3.26928 46.2766 1.61736 45.022 1.29245 43.0452C0.998865 41.2601 2.14386 39.4145 3.94061 38.9878C4.91924 38.7549 5.95071 38.747 6.9587 38.6413C13.768 37.9328 20.3874 36.3709 26.8424 34.1181C41.5061 28.9999 54.1343 20.801 64.4647 9.14556C64.5684 9.02812 64.6683 8.90873 64.7622 8.78346C64.7877 8.74823 64.7837 8.69147 64.819 8.52706Z" fill="#6160B5"/>
</svg>
