<svg width="80" height="80" viewBox="0 0 80 80" fill="none" xmlns="http://www.w3.org/2000/svg">
<path d="M73.7858 25.8096C73.2901 25.8031 72.7923 25.8074 72.2707 25.8074V24.7132C72.2707 18.7204 72.2772 12.7298 72.2686 6.73702C72.2621 2.76482 69.4949 0.0204697 65.5058 0.00969908C63.8398 0.00539084 62.1718 -0.0139965 60.5059 0.0183154C57.7236 0.0700142 55.2926 1.89671 54.5167 4.57428C54.2969 5.33468 54.2495 6.15756 54.215 6.95458C54.1676 8.06826 54.2042 9.18625 54.2042 10.2849H36.1356C36.1356 8.17812 36.1442 6.11663 36.1334 4.05298C36.1205 1.64898 34.4804 0.0140074 32.0645 0.0118533C25.3168 0.00539089 18.5712 0.00539089 11.8235 0.0118533C9.36666 0.0140074 7.74814 1.64898 7.74599 4.12191C7.73952 9.12163 7.73737 14.1192 7.74599 19.1167C7.74814 21.5832 9.37313 23.2182 11.8257 23.2268C14.4614 23.2354 17.095 23.229 19.7307 23.229H20.5906V25.8074H19.6531C15.164 25.8074 10.6748 25.7881 6.18567 25.8161C2.34522 25.8376 -0.460757 29.1162 0.0629404 32.901C0.203024 33.9134 0.334487 34.9237 0.459484 35.9361C1.82368 46.8877 3.18142 57.8371 4.54778 68.7886C5.04561 72.7673 7.39902 74.8266 11.4291 74.8266C13.2847 74.8266 15.1381 74.8029 16.9937 74.8438C17.4182 74.8525 17.8945 74.9946 18.2501 75.2251C20.3471 76.5822 22.4138 77.9867 24.4957 79.3653C25.5905 80.0913 26.7543 80.2291 27.9267 79.598C29.1185 78.9561 29.6896 77.9113 29.6831 76.5564C29.681 76.02 29.6831 75.4836 29.6831 74.8266H40.8187C41.532 74.8266 42.1096 74.2493 42.1096 73.5363C42.1096 72.8233 41.532 72.246 40.8187 72.246H27.1013C27.1013 73.6311 27.1271 74.9171 27.084 76.2009C27.0732 76.5628 26.9418 77.1315 26.7133 77.222C26.4116 77.3405 25.9009 77.1768 25.584 76.9721C23.3772 75.5396 21.2048 74.0533 18.998 72.6208C18.6639 72.4032 18.2135 72.2697 17.8148 72.2632C15.5842 72.2287 13.3537 72.2481 11.1209 72.246C8.83434 72.2417 7.47445 71.1258 7.17273 68.8575C6.58007 64.3856 6.04559 59.9072 5.48741 55.4331C4.75682 49.5997 4.02623 43.7663 3.29564 37.933C3.06504 36.0934 2.80427 34.2602 2.61031 32.4184C2.37756 30.2212 3.95295 28.3989 6.12964 28.3967C22.0151 28.3838 37.9006 28.3902 53.7861 28.3902C53.8896 28.3902 53.9952 28.4096 54.2042 28.429V29.2907C54.2042 32.7286 54.1913 36.1688 54.2172 39.6067C54.2193 40.0419 54.3314 40.5136 54.5232 40.9035C56.146 44.2015 57.799 47.4844 59.4412 50.7737C59.5576 51.0085 59.661 51.2498 59.8141 51.5836H52.965V54.188H53.6051C56.7236 54.188 59.8421 54.1751 62.9606 54.1923C64.5489 54.1987 65.6696 53.5116 66.3764 52.0899C68.2536 48.318 70.1522 44.5569 72.0186 40.7786C72.1889 40.4361 72.2578 40.0139 72.26 39.6261C72.2772 35.921 72.2707 32.216 72.2707 28.5173C76.0789 27.6815 77.7383 30.4388 77.3698 32.9764C76.4086 39.6175 75.6715 46.291 74.8418 52.9494C74.1845 58.2248 73.5401 63.5002 72.8569 68.7714C72.5531 71.1215 71.1996 72.246 68.8161 72.246H49.3595C48.6461 72.246 48.0686 72.8233 48.0686 73.5363C48.0686 74.2493 48.6461 74.8266 49.3595 74.8266H54.756C59.5964 74.8266 64.4347 74.8417 69.273 74.818C72.3483 74.8051 74.9388 72.5949 75.331 69.6201C76.0573 64.112 76.734 58.5953 77.4258 53.0808C78.262 46.3922 79.0659 39.7015 79.9387 33.0194C80.4495 29.1162 77.7125 25.8527 73.7858 25.8096ZM12.0196 20.6462C10.7546 20.6462 10.3257 20.2175 10.3257 18.9552C10.3235 14.0653 10.3235 9.17333 10.3257 4.28347C10.3257 3.01685 10.7524 2.59033 12.0175 2.59033C15.3234 2.58603 18.6316 2.58818 21.9376 2.58818C25.2435 2.58818 28.5517 2.58603 31.8576 2.59033C33.1227 2.59033 33.5516 3.01901 33.5537 4.28132C33.5559 9.17117 33.5559 14.0632 33.5537 18.953C33.5516 20.2175 33.1227 20.6462 31.8598 20.6462C25.2457 20.6505 18.6316 20.6505 12.0196 20.6462ZM54.1611 25.7471H23.2867V23.229H24.3147C26.8405 23.229 29.3663 23.2311 31.8921 23.2268C34.5623 23.2247 36.1313 21.6435 36.1356 18.953C36.1377 16.9712 36.1356 14.9895 36.1356 12.9452H54.1611V25.7471ZM56.8206 18.0117V15.5323H69.6221V18.0117H56.8206ZM56.8249 20.7129H61.8916V38.6697H56.8249V20.7129ZM68.5768 41.9052C67.107 44.8563 65.6459 47.8139 64.1416 50.7479C63.9692 51.0839 63.5662 51.5039 63.258 51.5126C62.9584 51.5233 62.5252 51.1162 62.355 50.7866C60.8377 47.829 59.3658 44.8477 57.8809 41.8729C57.8012 41.7113 57.743 41.5411 57.6503 41.3214H68.8053C68.7234 41.5347 68.6652 41.7285 68.5768 41.9052ZM69.6479 38.6417H64.5834V20.6849H69.6479V38.6417ZM69.6781 12.8827H56.7839V9.50937C56.7839 8.46462 56.7645 7.41772 56.7926 6.37082C56.8443 4.30286 58.4757 2.64419 60.5403 2.60111C62.3377 2.56233 64.1373 2.56233 65.9346 2.60111C67.9001 2.63988 69.5854 4.18869 69.6587 6.13171C69.7428 8.35261 69.6781 10.5778 69.6781 12.8827Z" fill="#70BCDD"/>
<path d="M49.0039 49.0656C49.019 45.6836 47.0772 43.6307 43.879 42.6484C43.879 40.0656 43.8897 37.4872 43.8747 34.9108C43.8617 32.9075 42.5169 31.3307 40.5924 31.0076C38.7562 30.6995 36.9674 31.8261 36.308 33.6722C36.2088 33.9544 36.03 34.2603 35.7994 34.4391C31.8102 37.5109 27.3189 39.4 22.2974 39.8158C19.5712 40.0398 16.8191 39.9429 14.0799 40.0032C10.5951 40.0764 7.80847 42.8574 7.75028 46.3427C7.72226 48.1436 7.72011 49.9444 7.75244 51.7431C7.80632 54.7977 9.98947 57.3783 12.998 57.9147C13.8881 58.0719 14.8062 58.059 15.7351 58.1279C15.7631 58.2292 15.7954 58.3283 15.8191 58.4295C16.61 61.9644 17.4139 65.495 18.1768 69.0342C18.2846 69.534 18.4613 69.6848 18.9635 69.6783C21.0604 69.6503 23.1552 69.6676 25.2521 69.6632C25.4289 69.6632 25.6056 69.6202 25.8577 69.5857V58.8345C29.2995 59.6789 32.3641 61.1114 35.1658 63.1169C35.7563 63.5412 36.3295 63.9484 36.4847 64.7497C36.5472 65.0707 36.7972 65.3722 37.0127 65.6415C38.0299 66.9103 39.6894 67.3928 41.2217 66.8909C42.7561 66.3847 43.851 64.9479 43.8682 63.3021C43.8962 60.6698 43.8747 58.0396 43.8747 55.4051C47.0427 54.4336 48.9866 52.4109 49.0039 49.0656ZM18.0195 55.4547C16.5691 55.4547 15.1446 55.5322 13.7351 55.4331C12.2588 55.3297 11.0239 54.2397 10.6813 52.8934H15.4463V50.3429H10.3709V47.7795H15.4312V45.1731H10.692C10.9808 43.8332 12.2976 42.7023 13.7976 42.6118C15.1855 42.53 16.582 42.5946 18.0195 42.5946V55.4547ZM23.1897 67.0481H20.3858C19.7264 64.0819 19.0712 61.1308 18.3751 58.003C20.0302 58.0935 21.6078 58.1796 23.1897 58.2658V67.0481ZM36.0774 60.5686C31.405 57.4537 26.3017 55.767 20.6768 55.5193V42.5407C26.2521 42.2801 31.3662 40.63 36.0774 37.4764V60.5686ZM41.2842 63.3258C41.198 64.0259 40.6398 64.5364 39.976 64.4955C39.2648 64.4503 38.8467 64.041 38.7325 63.3431C38.698 63.1341 38.7174 62.9144 38.7174 62.7011V35.3718C38.7174 35.1305 38.7023 34.885 38.7411 34.648C38.8467 33.9932 39.4006 33.5214 40.0364 33.558C40.7131 33.5968 41.129 33.9781 41.2669 34.6308C41.323 34.8893 41.2971 35.165 41.2971 35.4343V62.5999C41.2971 62.8433 41.3122 63.0867 41.2842 63.3258ZM43.9199 52.538V45.5586C45.1742 45.7353 46.3401 47.2065 46.45 48.7554C46.5729 50.4636 45.5039 52.0856 43.9199 52.538Z" fill="#70BCDD"/>
<path d="M52.9522 59.2933C52.9522 58.4402 52.9522 57.6432 52.9522 56.8096C58.9435 56.8096 64.8981 56.8096 70.9174 56.8096C70.9174 57.6087 70.9174 58.423 70.9174 59.2933C64.9606 59.2933 58.9887 59.2933 52.9522 59.2933Z" fill="#70BCDD"/>
<path d="M52.9522 64.4525C52.9522 63.5973 52.9522 62.8024 52.9522 61.9688C58.9435 61.9688 64.8981 61.9688 70.9174 61.9688C70.9174 62.7679 70.9174 63.5822 70.9174 64.4525C64.9606 64.4525 58.9866 64.4525 52.9522 64.4525Z" fill="#70BCDD"/>
<path d="M52.9522 67.1169C53.8013 67.1169 54.5965 67.1169 55.4435 67.1169C55.4435 67.9484 55.4435 68.7627 55.4435 69.62C54.6181 69.62 53.8056 69.62 52.9522 69.62C52.9522 68.7928 52.9522 68.0001 52.9522 67.1169Z" fill="#70BCDD"/>
<path d="M58.0923 69.6157C58.0923 68.7692 58.0923 67.9937 58.0923 67.1536C58.9112 67.1536 59.7237 67.1536 60.5987 67.1536C60.5987 67.9377 60.5987 68.7498 60.5987 69.6157C59.7905 69.6157 58.978 69.6157 58.0923 69.6157Z" fill="#70BCDD"/>
<path d="M65.801 67.1536C65.801 67.9958 65.801 68.7691 65.801 69.6049C64.9735 69.6049 64.161 69.6049 63.2903 69.6049C63.2903 68.8058 63.2903 67.9937 63.2903 67.1536C64.133 67.1536 64.9648 67.1536 65.801 67.1536Z" fill="#70BCDD"/>
<path d="M70.9454 67.1428C70.9454 67.998 70.9454 68.7907 70.9454 69.6244C70.1157 69.6244 69.3226 69.6244 68.4648 69.6244C68.4648 68.8252 68.4648 68.0131 68.4648 67.1428C69.2579 67.1428 70.0704 67.1428 70.9454 67.1428Z" fill="#70BCDD"/>
<path d="M26.6637 8.70374C24.5711 7.5599 22.4267 6.49576 20.2587 5.49625C17.9764 4.44504 15.5389 6.04986 15.4915 8.56803C15.4721 9.58908 15.4872 10.6101 15.4872 11.6312C15.4872 12.6522 15.4678 13.6733 15.4915 14.6943C15.5454 17.1694 17.9613 18.7786 20.2069 17.7575C22.4052 16.758 24.5732 15.6809 26.6874 14.5156C28.9999 13.2403 28.9826 9.97251 26.6637 8.70374ZM25.1422 12.4196C23.2629 13.404 21.3621 14.3454 19.4613 15.2824C18.6272 15.6939 18.0884 15.3643 18.0712 14.4445C18.0539 13.4773 18.0669 12.5101 18.0669 11.5429C18.0669 10.6015 18.0518 9.66232 18.0733 8.72097C18.0927 7.8744 18.6035 7.54266 19.3578 7.91102C21.3104 8.86314 23.2586 9.83249 25.1853 10.8342C25.4525 10.972 25.7758 11.3555 25.7543 11.5989C25.7284 11.894 25.4267 12.271 25.1422 12.4196Z" fill="#70BCDD"/>
</svg>
